# xmcd
#
# Track frame offsets:
#	150
#	22700
#	39737
#	60816
#	78571
#	96716
#	114984
#	130470
#	145959
#	164639
#	185041
#
# Disc length: 2722 seconds
#
# Revision: 1
# Processed by: cddbd v1.5.2PL0 Copyright (c) Steve Scherf et al.
# Submitted via: audiograbber 1.83.01
#
DISCID=980aa00b
DTITLE=Graeme Connors - This Is Life
DYEAR=2002
DGENRE=Country
TTITLE0=Big Country
TTITLE1=Every Time You Fall In Love
TTITLE2=The Simple Truth
TTITLE3=You're Getting To Me
TTITLE4=Good On You
TTITLE5=This Is Life
TTITLE6=Could You Still Be Here
TTITLE7=Sea Horses
TTITLE8=Ain't That The Way It Goes
TTITLE9=We Are What We Do
TTITLE10=All Hell Broke Loose
EXTD=
EXTT0=
EXTT1=
EXTT2=
EXTT3=
EXTT4=
EXTT5=
EXTT6=
EXTT7=
EXTT8=
EXTT9=
EXTT10=
PLAYORDER=
